<svg xmlns="http://www.w3.org/2000/svg" viewBox="54 -5 507 918" width="507" height="918" data-t="11760" data-duration="11760">
<defs><marker id="arrow-1f2328" viewBox="0 0 10 10" refX="9" refY="5" markerWidth="8" markerHeight="8" orient="auto-start-reverse"><path d="M 0 0 L 10 5 L 0 10 z" fill="#1f2328"/></marker></defs>
<rect x="54" y="-5" width="507" height="918" fill="#ffffff"/>
<g id="title" data-shape="text" transform="translate(320 22)"><text font-size="18" fill="#1f2328" text-anchor="middle" dominant-baseline="central" font-family="system-ui, sans-serif"><tspan x="0" y="0">Checkout</tspan></text></g>
<g id="edge-0" data-shape="arrow" transform="translate(0 0)"><line x1="320" y1="108" x2="320" y2="183.5" stroke="#1f2328" stroke-width="1.5" fill="none" marker-end="url(#arrow-1f2328)"/></g>
<g id="edge-1" data-shape="arrow" transform="translate(0 0)"><line x1="297.72" y1="242.11" x2="212.4" y2="326.77" stroke="#1f2328" stroke-width="1.5" fill="none" marker-end="url(#arrow-1f2328)"/></g>
<g id="edge-1-label" data-shape="text" transform="translate(258.74 265.29)"><text font-size="12" fill="#1f2328" stroke="#ffffff" stroke-width="3" stroke-linejoin="round" paint-order="stroke" text-anchor="middle" dominant-baseline="central" font-family="system-ui, sans-serif"><tspan x="0" y="0">no</tspan></text></g>
<g id="edge-2" data-shape="arrow" transform="translate(0 0)"><line x1="342.28" y1="242.11" x2="427.6" y2="326.77" stroke="#1f2328" stroke-width="1.5" fill="none" marker-end="url(#arrow-1f2328)"/></g>
<g id="edge-2-label" data-shape="text" transform="translate(365.77 280.91)"><text font-size="12" fill="#1f2328" stroke="#ffffff" stroke-width="3" stroke-linejoin="round" paint-order="stroke" text-anchor="middle" dominant-baseline="central" font-family="system-ui, sans-serif"><tspan x="0" y="0">yes</tspan></text></g>
<g id="edge-3" data-shape="arrow" transform="translate(0 0)"><line x1="231.5" y1="349" x2="377.5" y2="349" stroke="#1f2328" stroke-width="1.5" fill="none" marker-end="url(#arrow-1f2328)"/></g>
<g id="edge-4" data-shape="arrow" transform="translate(0 0)"><line x1="431.86" y1="367" x2="347.77" y2="450.44" stroke="#1f2328" stroke-width="1.5" fill="none" marker-end="url(#arrow-1f2328)"/></g>
<g id="edge-5" data-shape="arrow" transform="translate(0 0)"><line x1="296.49" y1="501.33" x2="212.4" y2="584.77" stroke="#1f2328" stroke-width="1.5" fill="none" marker-end="url(#arrow-1f2328)"/></g>
<g id="edge-5-label" data-shape="text" transform="translate(257.51 524.51)"><text font-size="12" fill="#1f2328" stroke="#ffffff" stroke-width="3" stroke-linejoin="round" paint-order="stroke" text-anchor="middle" dominant-baseline="central" font-family="system-ui, sans-serif"><tspan x="0" y="0">no</tspan></text></g>
<g id="edge-6" data-shape="path" transform="translate(98 607)"><path d="M 0 0 L -28 0 L -28 -129 L 116 -129" fill="none" stroke="#1f2328" stroke-width="1.5" marker-end="url(#arrow-1f2328)"/></g>
<g id="edge-7" data-shape="arrow" transform="translate(0 0)"><line x1="343.51" y1="501.33" x2="427.6" y2="584.77" stroke="#1f2328" stroke-width="1.5" fill="none" marker-end="url(#arrow-1f2328)"/></g>
<g id="edge-7-label" data-shape="text" transform="translate(366.99 540.13)"><text font-size="12" fill="#1f2328" stroke="#ffffff" stroke-width="3" stroke-linejoin="round" paint-order="stroke" text-anchor="middle" dominant-baseline="central" font-family="system-ui, sans-serif"><tspan x="0" y="0">yes</tspan></text></g>
<g id="edge-8" data-shape="arrow" transform="translate(0 0)"><line x1="431.86" y1="625" x2="347.01" y2="709.2" stroke="#1f2328" stroke-width="1.5" fill="none" marker-end="url(#arrow-1f2328)"/></g>
<g id="edge-9" data-shape="arrow" transform="translate(0 0)"><line x1="297.25" y1="758.57" x2="212.4" y2="842.77" stroke="#1f2328" stroke-width="1.5" fill="none" marker-end="url(#arrow-1f2328)"/></g>
<g id="edge-9-label" data-shape="text" transform="translate(258.27 781.76)"><text font-size="12" fill="#1f2328" stroke="#ffffff" stroke-width="3" stroke-linejoin="round" paint-order="stroke" text-anchor="middle" dominant-baseline="central" font-family="system-ui, sans-serif"><tspan x="0" y="0">no</tspan></text></g>
<g id="edge-10" data-shape="path" transform="translate(190 883)"><path d="M 0 0 L 0 14 L 354.5 14 L 354.5 -276 L 302 -276" fill="none" stroke="#1f2328" stroke-width="1.5" marker-end="url(#arrow-1f2328)"/></g>
<g id="edge-11" data-shape="arrow" transform="translate(0 0)"><line x1="342.75" y1="758.57" x2="428.61" y2="843.77" stroke="#1f2328" stroke-width="1.5" fill="none" marker-end="url(#arrow-1f2328)"/></g>
<g id="edge-11-label" data-shape="text" transform="translate(366.23 797.37)"><text font-size="12" fill="#1f2328" stroke="#ffffff" stroke-width="3" stroke-linejoin="round" paint-order="stroke" text-anchor="middle" dominant-baseline="central" font-family="system-ui, sans-serif"><tspan x="0" y="0">yes</tspan></text></g>
<g id="node-start" data-shape="rect" transform="translate(320 91)"><rect x="-32" y="-17" width="64" height="34" rx="17" fill="#22c55e" stroke="#1f2328" stroke-width="1.5"/><text font-size="14" fill="#1f2328" text-anchor="middle" dominant-baseline="central" font-family="system-ui, sans-serif"><tspan x="0" y="0">cart</tspan></text></g>
<g id="node-login" data-shape="path" transform="translate(320 220)"><path d="M 0 -30.5 L 81 0 L 0 30.5 L -81 0 Z" fill="#22c55e" stroke="#1f2328" stroke-width="1.5"/><text font-size="14" fill="#1f2328" text-anchor="middle" dominant-baseline="central" font-family="system-ui, sans-serif"><tspan x="0" y="0">logged in?</tspan></text></g>
<g id="node-signin" data-shape="rect" transform="translate(190 349)"><rect x="-41.5" y="-18" width="83" height="36" rx="6" fill="#22c55e" stroke="#1f2328" stroke-width="1.5"/><text font-size="14" fill="#1f2328" text-anchor="middle" dominant-baseline="central" font-family="system-ui, sans-serif"><tspan x="0" y="0">sign in</tspan></text></g>
<g id="node-address" data-shape="rect" transform="translate(450 349)"><rect x="-66.5" y="-18" width="133" height="36" rx="6" fill="#22c55e" stroke="#1f2328" stroke-width="1.5"/><text font-size="14" fill="#1f2328" text-anchor="middle" dominant-baseline="central" font-family="system-ui, sans-serif"><tspan x="0" y="0">enter address</tspan></text></g>
<g id="node-stock" data-shape="path" transform="translate(320 478)"><path d="M 0 -30.5 L 100 0 L 0 30.5 L -100 0 Z" fill="#22c55e" stroke="#1f2328" stroke-width="1.5"/><text font-size="14" fill="#1f2328" text-anchor="middle" dominant-baseline="central" font-family="system-ui, sans-serif"><tspan x="0" y="0">all in stock?</tspan></text></g>
<g id="node-remove" data-shape="rect" transform="translate(190 607)"><rect x="-92" y="-18" width="184" height="36" rx="6" fill="#22c55e" stroke="#1f2328" stroke-width="1.5"/><text font-size="14" fill="#1f2328" text-anchor="middle" dominant-baseline="central" font-family="system-ui, sans-serif"><tspan x="0" y="0">remove missing item</tspan></text></g>
<g id="node-pay" data-shape="rect" transform="translate(450 607)"><rect x="-36" y="-18" width="72" height="36" rx="6" fill="#22c55e" stroke="#1f2328" stroke-width="1.5"/><text font-size="14" fill="#1f2328" text-anchor="middle" dominant-baseline="central" font-family="system-ui, sans-serif"><tspan x="0" y="0">pay</tspan></text></g>
<g id="node-paid" data-shape="path" transform="translate(320 736)"><path d="M 0 -30.5 L 87.5 0 L 0 30.5 L -87.5 0 Z" fill="#22c55e" stroke="#1f2328" stroke-width="1.5"/><text font-size="14" fill="#1f2328" text-anchor="middle" dominant-baseline="central" font-family="system-ui, sans-serif"><tspan x="0" y="0">payment ok?</tspan></text></g>
<g id="node-retry" data-shape="rect" transform="translate(190 865)"><rect x="-54" y="-18" width="108" height="36" rx="6" fill="#22c55e" stroke="#1f2328" stroke-width="1.5"/><text font-size="14" fill="#1f2328" text-anchor="middle" dominant-baseline="central" font-family="system-ui, sans-serif"><tspan x="0" y="0">retry card</tspan></text></g>
<g id="node-done" data-shape="rect" transform="translate(450 865)"><rect x="-62.5" y="-17" width="125" height="34" rx="17" fill="#f59e0b" stroke="#1f2328" stroke-width="1.5"/><text font-size="14" fill="#1f2328" text-anchor="middle" dominant-baseline="central" font-family="system-ui, sans-serif"><tspan x="0" y="0">order placed</tspan></text></g>
<g id="token" data-shape="circle" transform="translate(514.5 865)"><circle r="6" fill="#f59e0b" stroke="#1f2328" stroke-width="1.5"/></g>
</svg>