<svg xmlns="http://www.w3.org/2000/svg" viewBox="104 -5 1220 637" width="1220" height="637" data-t="560" data-duration="560">
<defs><marker id="arrow-1f2328" viewBox="0 0 10 10" refX="9" refY="5" markerWidth="8" markerHeight="8" orient="auto-start-reverse"><path d="M 0 0 L 10 5 L 0 10 z" fill="#1f2328"/></marker></defs>
<rect x="104" y="-5" width="1220" height="637" fill="#ffffff"/>
<g id="title" data-shape="text" transform="translate(723.5 22)"><text font-size="18" fill="#1f2328" text-anchor="middle" dominant-baseline="central" font-family="system-ui, sans-serif"><tspan x="0" y="0">Monorepo architecture</tspan></text></g>
<g id="apps" data-shape="rect" transform="translate(727.7 134)"><rect x="-377.5" y="-40.2" width="755" height="80.4" rx="10" fill="none" stroke="#9ca3af" stroke-width="1.2"/></g>
<g id="apps-label" data-shape="text" transform="translate(360.2 105.8)"><text font-size="12" fill="#9ca3af" text-anchor="start" dominant-baseline="central" font-family="system-ui, sans-serif"><tspan x="0" y="0">apps</tspan></text></g>
<g id="platform" data-shape="rect" transform="translate(459.2 412.5)"><rect x="-339.2" y="-203.7" width="678.4" height="407.4" rx="10" fill="none" stroke="#9ca3af" stroke-width="1.2"/></g>
<g id="platform-label" data-shape="text" transform="translate(130 220.8)"><text font-size="12" fill="#9ca3af" text-anchor="start" dominant-baseline="central" font-family="system-ui, sans-serif"><tspan x="0" y="0">platform</tspan></text></g>
<g id="infra" data-shape="rect" transform="translate(1132.1 552)"><rect x="-175.1" y="-40.2" width="350.2" height="80.4" rx="10" fill="none" stroke="#9ca3af" stroke-width="1.2"/></g>
<g id="infra-label" data-shape="text" transform="translate(967 523.8)"><text font-size="12" fill="#9ca3af" text-anchor="start" dominant-baseline="central" font-family="system-ui, sans-serif"><tspan x="0" y="0">infra</tspan></text></g>
<g id="services" data-shape="rect" transform="translate(459.2 413)"><rect x="-315.2" y="-40.2" width="630.4" height="80.4" rx="10" fill="none" stroke="#9ca3af" stroke-width="1.2"/></g>
<g id="services-label" data-shape="text" transform="translate(154 384.8)"><text font-size="12" fill="#9ca3af" text-anchor="start" dominant-baseline="central" font-family="system-ui, sans-serif"><tspan x="0" y="0">services</tspan></text></g>
<g id="kernel" data-shape="rect" transform="translate(467.1 552)"><rect x="-264.5" y="-40.2" width="529" height="80.4" rx="10" fill="none" stroke="#9ca3af" stroke-width="1.2"/></g>
<g id="kernel-label" data-shape="text" transform="translate(721.6 523.8)"><text font-size="12" fill="#9ca3af" text-anchor="end" dominant-baseline="central" font-family="system-ui, sans-serif"><tspan x="0" y="0">kernel</tspan></text></g>
<g id="edge-0" data-shape="arrow" transform="translate(0 0)"><line x1="397.64" y1="162" x2="443.62" y2="257.4" stroke="#1f2328" stroke-width="1.5" fill="none" marker-end="url(#arrow-1f2328)"/></g>
<g id="edge-1" data-shape="arrow" transform="translate(0 0)"><line x1="1024.85" y1="149.86" x2="484.65" y2="274.18" stroke="#1f2328" stroke-width="1.5" fill="none" marker-end="url(#arrow-1f2328)"/></g>
<g id="edge-2" data-shape="arrow" transform="translate(0 0)"><line x1="429.43" y1="294.31" x2="219.32" y2="403.66" stroke="#1f2328" stroke-width="1.5" fill="none" marker-end="url(#arrow-1f2328)"/></g>
<g id="edge-3" data-shape="arrow" transform="translate(0 0)"><line x1="455" y1="301.2" x2="455" y2="396.8" stroke="#1f2328" stroke-width="1.5" fill="none" marker-end="url(#arrow-1f2328)"/></g>
<g id="edge-4" data-shape="arrow" transform="translate(0 0)"><line x1="480.57" y1="294.31" x2="683.71" y2="400.03" stroke="#1f2328" stroke-width="1.5" fill="none" marker-end="url(#arrow-1f2328)"/></g>
<g id="edge-5" data-shape="arrow" transform="translate(0 0)"><line x1="215.92" y1="429.85" x2="588.71" y2="540.1" stroke="#1f2328" stroke-width="1.5" fill="none" marker-end="url(#arrow-1f2328)"/></g>
<g id="edge-6" data-shape="arrow" transform="translate(0 0)"><line x1="482.96" y1="440.34" x2="624.75" y2="538.39" stroke="#1f2328" stroke-width="1.5" fill="none" marker-end="url(#arrow-1f2328)"/></g>
<g id="edge-7" data-shape="arrow" transform="translate(0 0)"><line x1="714.22" y1="441" x2="667.54" y2="536.41" stroke="#1f2328" stroke-width="1.5" fill="none" marker-end="url(#arrow-1f2328)"/></g>
<g id="edge-8" data-shape="arrow" transform="translate(0 0)"><line x1="497.54" y1="432.01" x2="965.19" y2="553.06" stroke="#1f2328" stroke-width="1.5" fill="none" marker-end="url(#arrow-1f2328)"/></g>
<g id="edge-9" data-shape="arrow" transform="translate(0 0)"><line x1="760.87" y1="440.12" x2="965.67" y2="546.35" stroke="#1f2328" stroke-width="1.5" fill="none" marker-end="url(#arrow-1f2328)"/></g>
<g id="edge-10" data-shape="arrow" transform="translate(0 0)"><line x1="762.34" y1="430.92" x2="1222.99" y2="550.16" stroke="#1f2328" stroke-width="1.5" fill="none" marker-end="url(#arrow-1f2328)"/></g>
<g id="edge-11" data-shape="arrow" transform="translate(0 0)"><line x1="440.65" y1="300.82" x2="269.7" y2="536.94" stroke="#1f2328" stroke-width="1.5" fill="none" marker-end="url(#arrow-1f2328)"/></g>
<g id="edge-12" data-shape="arrow" transform="translate(0 0)"><line x1="195.64" y1="441" x2="241.62" y2="536.4" stroke="#1f2328" stroke-width="1.5" fill="none" marker-end="url(#arrow-1f2328)"/></g>
<g id="web" data-shape="rect" transform="translate(388 142)"><rect x="-23.8" y="-18.2" width="47.6" height="36.4" rx="6" fill="#ffffff" stroke="#1f2328" stroke-width="1.5"/><text font-size="14" fill="#1f2328" text-anchor="middle" dominant-baseline="central" font-family="system-ui, sans-serif"><tspan x="0" y="0">web</tspan></text></g>
<g id="admin" data-shape="rect" transform="translate(1059 142)"><rect x="-32.2" y="-18.2" width="64.4" height="36.4" rx="6" fill="#ffffff" stroke="#1f2328" stroke-width="1.5"/><text font-size="14" fill="#1f2328" text-anchor="middle" dominant-baseline="central" font-family="system-ui, sans-serif"><tspan x="0" y="0">admin</tspan></text></g>
<g id="api" data-shape="rect" transform="translate(455 281)"><rect x="-23.8" y="-18.2" width="47.6" height="36.4" rx="6" fill="#ffffff" stroke="#1f2328" stroke-width="1.5"/><text font-size="14" fill="#1f2328" text-anchor="middle" dominant-baseline="central" font-family="system-ui, sans-serif"><tspan x="0" y="0">api</tspan></text></g>
<g id="auth" data-shape="rect" transform="translate(186 421)"><rect x="-28" y="-18.2" width="56" height="36.4" rx="6" fill="#ffffff" stroke="#1f2328" stroke-width="1.5"/><text font-size="14" fill="#1f2328" text-anchor="middle" dominant-baseline="central" font-family="system-ui, sans-serif"><tspan x="0" y="0">auth</tspan></text></g>
<g id="catalog" data-shape="rect" transform="translate(455 421)"><rect x="-40.6" y="-18.2" width="81.2" height="36.4" rx="6" fill="#ffffff" stroke="#1f2328" stroke-width="1.5"/><text font-size="14" fill="#1f2328" text-anchor="middle" dominant-baseline="central" font-family="system-ui, sans-serif"><tspan x="0" y="0">catalog</tspan></text></g>
<g id="orders" data-shape="rect" transform="translate(724 421)"><rect x="-36.4" y="-18.2" width="72.8" height="36.4" rx="6" fill="#ffffff" stroke="#1f2328" stroke-width="1.5"/><text font-size="14" fill="#1f2328" text-anchor="middle" dominant-baseline="central" font-family="system-ui, sans-serif"><tspan x="0" y="0">orders</tspan></text></g>
<g id="shared-types" data-shape="rect" transform="translate(656 560)"><rect x="-61.6" y="-18.2" width="123.2" height="36.4" rx="6" fill="#ffffff" stroke="#1f2328" stroke-width="1.5"/><text font-size="14" fill="#1f2328" text-anchor="middle" dominant-baseline="central" font-family="system-ui, sans-serif"><tspan x="0" y="0">shared-types</tspan></text></g>
<g id="logger" data-shape="rect" transform="translate(253 560)"><rect x="-36.4" y="-18.2" width="72.8" height="36.4" rx="6" fill="#ffffff" stroke="#1f2328" stroke-width="1.5"/><text font-size="14" fill="#1f2328" text-anchor="middle" dominant-baseline="central" font-family="system-ui, sans-serif"><tspan x="0" y="0">logger</tspan></text></g>
<g id="db" data-shape="rect" transform="translate(992 560)"><rect x="-21" y="-18.2" width="42" height="36.4" rx="6" fill="#ffffff" stroke="#1f2328" stroke-width="1.5"/><text font-size="14" fill="#1f2328" text-anchor="middle" dominant-baseline="central" font-family="system-ui, sans-serif"><tspan x="0" y="0">db</tspan></text></g>
<g id="queue" data-shape="rect" transform="translate(1261 560)"><rect x="-32.2" y="-18.2" width="64.4" height="36.4" rx="6" fill="#ffffff" stroke="#1f2328" stroke-width="1.5"/><text font-size="14" fill="#1f2328" text-anchor="middle" dominant-baseline="central" font-family="system-ui, sans-serif"><tspan x="0" y="0">queue</tspan></text></g>
<g id="token" data-shape="circle" transform="translate(0 0)" opacity="0"><circle r="6" fill="#f59e0b" stroke="#1f2328" stroke-width="1.5"/></g>
</svg>