<svg xmlns="http://www.w3.org/2000/svg" viewBox="-5 -5 747 862" width="747" height="862" data-t="4760" data-duration="4760">
<defs><marker id="arrow-1f2328" viewBox="0 0 10 10" refX="9" refY="5" markerWidth="8" markerHeight="8" orient="auto-start-reverse"><path d="M 0 0 L 10 5 L 0 10 z" fill="#1f2328"/></marker></defs>
<rect x="-5" y="-5" width="747" height="862" fill="#ffffff"/>
<g id="title" data-shape="text" transform="translate(286 22)"><text font-size="18" fill="#1f2328" text-anchor="middle" dominant-baseline="central" font-family="system-ui, sans-serif"><tspan x="0" y="0">vlmkit — the workspace and its dependencies</tspan></text></g>
<g id="edge-0" data-shape="path" transform="translate(33.58 454.8)"><path d="M 0 0 L 146.4 -12 L 252.4 -12 L 331.4 8.6" fill="none" stroke="#1f2328" stroke-width="1.5" marker-end="url(#arrow-1f2328)"/></g>
<g id="edge-1" data-shape="arrow" transform="translate(0 0)"><line x1="96.65" y1="454.8" x2="268.08" y2="151.2" stroke="#1f2328" stroke-width="1.5" fill="none" marker-end="url(#arrow-1f2328)"/></g>
<g id="edge-2" data-shape="path" transform="translate(112.42 454.8)"><path d="M 0 0 L 173.6 -212 L 234.8 -245.6" fill="none" stroke="#1f2328" stroke-width="1.5" marker-end="url(#arrow-1f2328)"/></g>
<g id="edge-3" data-shape="path" transform="translate(112.42 495.2)"><path d="M 0 0 L 173.6 212 L 253.6 245.6" fill="none" stroke="#1f2328" stroke-width="1.5" marker-end="url(#arrow-1f2328)"/></g>
<g id="edge-4" data-shape="path" transform="translate(49.35 454.8)"><path d="M 0 0 L 130.7 -12 L 236.7 -12 L 342.7 -12 L 415.7 8.6" fill="none" stroke="#1f2328" stroke-width="1.5" marker-end="url(#arrow-1f2328)"/></g>
<g id="edge-5" data-shape="path" transform="translate(65.12 454.8)"><path d="M 0 0 L 114.9 -12 L 170.3 4.8" fill="none" stroke="#1f2328" stroke-width="1.5" marker-end="url(#arrow-1f2328)"/></g>
<g id="edge-6" data-shape="arrow" transform="translate(0 0)"><line x1="73" y1="495.2" x2="268.08" y2="798.8" stroke="#1f2328" stroke-width="1.5" fill="none" marker-end="url(#arrow-1f2328)"/></g>
<g id="edge-7" data-shape="arrow" transform="translate(0 0)"><line x1="80.88" y1="454.8" x2="262.7" y2="325.2" stroke="#1f2328" stroke-width="1.5" fill="none" marker-end="url(#arrow-1f2328)"/></g>
<g id="edge-8" data-shape="arrow" transform="translate(0 0)"><line x1="136.6" y1="475" x2="150.2" y2="475" stroke="#1f2328" stroke-width="1.5" fill="none" marker-end="url(#arrow-1f2328)"/></g>
<g id="edge-9" data-shape="arrow" transform="translate(0 0)"><line x1="33.58" y1="495.2" x2="268.08" y2="624.8" stroke="#1f2328" stroke-width="1.5" fill="none" marker-end="url(#arrow-1f2328)"/></g>
<g id="edge-10" data-shape="arrow" transform="translate(0 0)"><line x1="415" y1="475" x2="465" y2="486.65" stroke="#1f2328" stroke-width="1.5" fill="none" marker-end="url(#arrow-1f2328)"/></g>
<g id="edge-11" data-shape="arrow" transform="translate(0 0)"><line x1="303.92" y1="147.2" x2="405.44" y2="450.8" stroke="#1f2328" stroke-width="1.5" fill="none" marker-end="url(#arrow-1f2328)"/></g>
<g id="edge-12" data-shape="arrow" transform="translate(0 0)"><line x1="315.75" y1="143.28" x2="353.47" y2="163.92" stroke="#1f2328" stroke-width="1.5" fill="none" marker-end="url(#arrow-1f2328)"/></g>
<g id="edge-13" data-shape="arrow" transform="translate(0 0)"><line x1="436.8" y1="205.2" x2="516.92" y2="450.8" stroke="#1f2328" stroke-width="1.5" fill="none" marker-end="url(#arrow-1f2328)"/></g>
<g id="edge-14" data-shape="arrow" transform="translate(0 0)"><line x1="417.98" y1="744.8" x2="516.92" y2="499.2" stroke="#1f2328" stroke-width="1.5" fill="none" marker-end="url(#arrow-1f2328)"/></g>
<g id="edge-15" data-shape="arrow" transform="translate(0 0)"><line x1="332.8" y1="475" x2="365" y2="486.65" stroke="#1f2328" stroke-width="1.5" fill="none" marker-end="url(#arrow-1f2328)"/></g>
<g id="edge-16" data-shape="arrow" transform="translate(0 0)"><line x1="286" y1="802.8" x2="378.56" y2="499.2" stroke="#1f2328" stroke-width="1.5" fill="none" marker-end="url(#arrow-1f2328)"/></g>
<g id="edge-17" data-shape="arrow" transform="translate(0 0)"><line x1="315.75" y1="806.72" x2="353.47" y2="786.08" stroke="#1f2328" stroke-width="1.5" fill="none" marker-end="url(#arrow-1f2328)"/></g>
<g id="edge-18" data-shape="arrow" transform="translate(0 0)"><line x1="303.92" y1="802.8" x2="481.08" y2="499.2" stroke="#1f2328" stroke-width="1.5" fill="none" marker-end="url(#arrow-1f2328)"/></g>
<g id="edge-19" data-shape="arrow" transform="translate(0 0)"><line x1="297.65" y1="321.2" x2="378.56" y2="450.8" stroke="#1f2328" stroke-width="1.5" fill="none" marker-end="url(#arrow-1f2328)"/></g>
<g id="edge-20" data-shape="arrow" transform="translate(0 0)"><line x1="303.98" y1="281.32" x2="392" y2="209.2" stroke="#1f2328" stroke-width="1.5" fill="none" marker-end="url(#arrow-1f2328)"/></g>
<g id="edge-21" data-shape="path" transform="translate(286 321.2)"><path d="M 0 0 L 58.8 153.8 L 106 419.6" fill="none" stroke="#1f2328" stroke-width="1.5" marker-end="url(#arrow-1f2328)"/></g>
<g id="edge-22" data-shape="arrow" transform="translate(0 0)"><line x1="309.3" y1="321.2" x2="481.08" y2="450.8" stroke="#1f2328" stroke-width="1.5" fill="none" marker-end="url(#arrow-1f2328)"/></g>
<g id="edge-23" data-shape="path" transform="translate(205.71 467.19)"><path d="M 0 0 L 80.3 -24.4 L 186.3 -24.4 L 259.3 7.8" fill="none" stroke="#1f2328" stroke-width="1.5" marker-end="url(#arrow-1f2328)"/></g>
<g id="edge-24" data-shape="arrow" transform="translate(0 0)"><line x1="192.13" y1="455.09" x2="274.35" y2="325.2" stroke="#1f2328" stroke-width="1.5" fill="none" marker-end="url(#arrow-1f2328)"/></g>
<g id="edge-25" data-shape="arrow" transform="translate(0 0)"><line x1="303.92" y1="628.8" x2="405.44" y2="499.2" stroke="#1f2328" stroke-width="1.5" fill="none" marker-end="url(#arrow-1f2328)"/></g>
<g id="vlmkit (cli)" data-shape="rect" transform="translate(73 475)"><rect x="-61.6" y="-18.2" width="123.2" height="36.4" rx="6" fill="#ffffff" stroke="#1f2328" stroke-width="1.5"/><text font-size="14" fill="#1f2328" text-anchor="middle" dominant-baseline="central" font-family="system-ui, sans-serif"><tspan x="0" y="0">vlmkit (cli)</tspan></text></g>
<g id="ai" data-shape="rect" transform="translate(392 475)"><rect x="-21" y="-18.2" width="42" height="36.4" rx="6" fill="#ffffff" stroke="#1f2328" stroke-width="1.5"/><text font-size="14" fill="#1f2328" text-anchor="middle" dominant-baseline="central" font-family="system-ui, sans-serif"><tspan x="0" y="0">ai</tspan></text></g>
<g id="anim" data-shape="rect" transform="translate(286 127)"><rect x="-28" y="-18.2" width="56" height="36.4" rx="6" fill="#ffffff" stroke="#1f2328" stroke-width="1.5"/><text font-size="14" fill="#1f2328" text-anchor="middle" dominant-baseline="central" font-family="system-ui, sans-serif"><tspan x="0" y="0">anim</tspan></text></g>
<g id="animation-eval" data-shape="rect" transform="translate(392 185)"><rect x="-70" y="-18.2" width="140" height="36.4" rx="6" fill="#ffffff" stroke="#1f2328" stroke-width="1.5"/><text font-size="14" fill="#1f2328" text-anchor="middle" dominant-baseline="central" font-family="system-ui, sans-serif"><tspan x="0" y="0">animation-eval</tspan></text></g>
<g id="capture" data-shape="rect" transform="translate(392 765)"><rect x="-40.6" y="-18.2" width="81.2" height="36.4" rx="6" fill="#ffffff" stroke="#1f2328" stroke-width="1.5"/><text font-size="14" fill="#1f2328" text-anchor="middle" dominant-baseline="central" font-family="system-ui, sans-serif"><tspan x="0" y="0">capture</tspan></text></g>
<g id="core" data-shape="rect" transform="translate(499 475)"><rect x="-28" y="-18.2" width="56" height="36.4" rx="6" fill="#ffffff" stroke="#1f2328" stroke-width="1.5"/><text font-size="14" fill="#1f2328" text-anchor="middle" dominant-baseline="central" font-family="system-ui, sans-serif"><tspan x="0" y="0">core</tspan></text></g>
<g id="generate" data-shape="rect" transform="translate(286 475)"><rect x="-44.8" y="-18.2" width="89.6" height="36.4" rx="6" fill="#ffffff" stroke="#1f2328" stroke-width="1.5"/><text font-size="14" fill="#1f2328" text-anchor="middle" dominant-baseline="central" font-family="system-ui, sans-serif"><tspan x="0" y="0">generate</tspan></text></g>
<g id="heal" data-shape="rect" transform="translate(286 823)"><rect x="-28" y="-18.2" width="56" height="36.4" rx="6" fill="#ffffff" stroke="#1f2328" stroke-width="1.5"/><text font-size="14" fill="#1f2328" text-anchor="middle" dominant-baseline="central" font-family="system-ui, sans-serif"><tspan x="0" y="0">heal</tspan></text></g>
<g id="markup" data-shape="rect" transform="translate(286 301)"><rect x="-36.4" y="-18.2" width="72.8" height="36.4" rx="6" fill="#ffffff" stroke="#1f2328" stroke-width="1.5"/><text font-size="14" fill="#1f2328" text-anchor="middle" dominant-baseline="central" font-family="system-ui, sans-serif"><tspan x="0" y="0">markup</tspan></text></g>
<g id="mcp" data-shape="rect" transform="translate(180 475)"><rect x="-23.8" y="-18.2" width="47.6" height="36.4" rx="6" fill="#ffffff" stroke="#1f2328" stroke-width="1.5"/><text font-size="14" fill="#1f2328" text-anchor="middle" dominant-baseline="central" font-family="system-ui, sans-serif"><tspan x="0" y="0">mcp</tspan></text></g>
<g id="plan" data-shape="rect" transform="translate(286 649)"><rect x="-28" y="-18.2" width="56" height="36.4" rx="6" fill="#ffffff" stroke="#1f2328" stroke-width="1.5"/><text font-size="14" fill="#1f2328" text-anchor="middle" dominant-baseline="central" font-family="system-ui, sans-serif"><tspan x="0" y="0">plan</tspan></text></g>
<g id="token" data-shape="circle" transform="translate(0 0)" opacity="0"><circle r="6" fill="#f59e0b" stroke="#1f2328" stroke-width="1.5"/></g>
<g id="value-n-label" data-shape="text" transform="translate(588 56)"><text font-size="12" fill="#9ca3af" text-anchor="start" dominant-baseline="central" font-family="system-ui, sans-serif"><tspan x="0" y="0">packages so far:</tspan></text></g>
<g id="value-n" data-shape="text" transform="translate(708 56)"><text font-size="14" fill="#f59e0b" text-anchor="start" dominant-baseline="central" font-family="system-ui, sans-serif"><tspan x="0" y="0">11</tspan></text></g>
</svg>