<svg xmlns="http://www.w3.org/2000/svg" viewBox="66 -5 515 456" width="515" height="456" data-t="1260" data-duration="1260">
<defs><marker id="arrow-1f2328" viewBox="0 0 10 10" refX="9" refY="5" markerWidth="8" markerHeight="8" orient="auto-start-reverse"><path d="M 0 0 L 10 5 L 0 10 z" fill="#1f2328"/></marker><marker id="arrow-f59e0b" viewBox="0 0 10 10" refX="9" refY="5" markerWidth="8" markerHeight="8" orient="auto-start-reverse"><path d="M 0 0 L 10 5 L 0 10 z" fill="#f59e0b"/></marker><marker id="arrow-hollow-1f2328" viewBox="0 0 12 12" refX="10" refY="6" markerWidth="10" markerHeight="10" orient="auto-start-reverse"><path d="M 1 1 L 11 6 L 1 11 z" fill="#ffffff" stroke="#1f2328" stroke-width="1.2"/></marker><marker id="arrow-ef4444" viewBox="0 0 10 10" refX="9" refY="5" markerWidth="8" markerHeight="8" orient="auto-start-reverse"><path d="M 0 0 L 10 5 L 0 10 z" fill="#ef4444"/></marker></defs>
<rect x="66" y="-5" width="515" height="456" fill="#ffffff"/>
<g id="title" data-shape="text" transform="translate(324 22)"><text font-size="18" fill="#1f2328" text-anchor="middle" dominant-baseline="central" font-family="system-ui, sans-serif"><tspan x="0" y="0">Ports and adapters: the adapters</tspan></text></g>
<g id="driving" data-shape="rect" transform="translate(321.9 99)"><rect x="-182.9" y="-40.2" width="365.8" height="80.4" rx="10" fill="none" stroke="#9ca3af" stroke-width="1.2"/></g>
<g id="driving-label" data-shape="text" transform="translate(149 70.8)"><text font-size="12" fill="#9ca3af" text-anchor="start" dominant-baseline="central" font-family="system-ui, sans-serif"><tspan x="0" y="0">driving</tspan></text></g>
<g id="core" data-shape="rect" transform="translate(133 296.5)"><rect x="-50.4" y="-138.7" width="100.8" height="277.4" rx="10" fill="none" stroke="#9ca3af" stroke-width="1.2"/></g>
<g id="core-label" data-shape="text" transform="translate(92.6 169.8)"><text font-size="12" fill="#9ca3af" text-anchor="start" dominant-baseline="central" font-family="system-ui, sans-serif"><tspan x="0" y="0">core</tspan></text></g>
<g id="adapters" data-shape="rect" transform="translate(415.3 198)"><rect x="-150.1" y="-40.2" width="300.2" height="80.4" rx="10" fill="none" stroke="#9ca3af" stroke-width="1.2"/></g>
<g id="adapters-label" data-shape="text" transform="translate(555.4 169.8)"><text font-size="12" fill="#9ca3af" text-anchor="end" dominant-baseline="central" font-family="system-ui, sans-serif"><tspan x="0" y="0">adapters</tspan></text></g>
<g id="edge-0" data-shape="arrow" transform="translate(0 0)"><line x1="171.3" y1="127" x2="144.44" y2="182.4" stroke="#1f2328" stroke-width="1.5" fill="none" marker-end="url(#arrow-1f2328)"/></g>
<g id="edge-1" data-shape="arrow" transform="translate(0 0)"><line x1="441.28" y1="114.62" x2="162.55" y2="197.24" stroke="#1f2328" stroke-width="1.5" fill="none" marker-end="url(#arrow-1f2328)"/></g>
<g id="edge-2" data-shape="path" transform="translate(124.41 226.04)"><path d="M 0 0 L -33.4 78 L -1.5 153.2" fill="none" stroke="#1f2328" stroke-width="1.5" marker-end="url(#arrow-1f2328)"/></g>
<g id="edge-3" data-shape="arrow" transform="translate(0 0)"><line x1="133" y1="226.2" x2="133" y2="279.8" stroke="#f59e0b" stroke-width="1.5" fill="none" marker-end="url(#arrow-f59e0b)"/></g>
<g id="edge-4" data-shape="arrow" transform="translate(0 0)"><line x1="133" y1="324.2" x2="133" y2="378.8" stroke="#1f2328" stroke-width="1.5" fill="none" marker-end="url(#arrow-1f2328)"/></g>
<g id="edge-5" data-shape="arrow" transform="translate(0 0)"><line x1="286.75" y1="225.11" x2="166.34" y2="286.89" stroke="#1f2328" stroke-width="1.5" fill="none" marker-end="url(#arrow-hollow-1f2328)" stroke-dasharray="6 4"/></g>
<g id="edge-6" data-shape="arrow" transform="translate(0 0)"><line x1="476.66" y1="215.84" x2="166.81" y2="295.33" stroke="#1f2328" stroke-width="1.5" fill="none" marker-end="url(#arrow-hollow-1f2328)" stroke-dasharray="6 4"/></g>
<g id="edge-7" data-shape="arrow" transform="translate(0 0)"><line x1="152.04" y1="383.36" x2="302.18" y2="228.51" stroke="#ef4444" stroke-width="1.5" fill="none" marker-end="url(#arrow-ef4444)" stroke-dasharray="6 4"/></g>
<g id="edge-7-label" data-shape="text" transform="translate(235.01 313.59)"><text font-size="12" fill="#ef4444" stroke="#ffffff" stroke-width="3" stroke-linejoin="round" paint-order="stroke" text-anchor="middle" dominant-baseline="central" font-family="system-ui, sans-serif"><tspan x="0" y="0">forbidden</tspan></text></g>
<g id="http" data-shape="rect" transform="translate(181 107)"><rect x="-28" y="-18.2" width="56" height="36.4" rx="6" fill="#ffffff" stroke="#1f2328" stroke-width="1.5"/><text font-size="14" fill="#1f2328" text-anchor="middle" dominant-baseline="central" font-family="system-ui, sans-serif"><tspan x="0" y="0">http</tspan></text></g>
<g id="cli" data-shape="rect" transform="translate(467 107)"><rect x="-23.8" y="-18.2" width="47.6" height="36.4" rx="6" fill="#ffffff" stroke="#1f2328" stroke-width="1.5"/><text font-size="14" fill="#1f2328" text-anchor="middle" dominant-baseline="central" font-family="system-ui, sans-serif"><tspan x="0" y="0">cli</tspan></text></g>
<g id="app" data-shape="rect" transform="translate(133 206)"><rect x="-23.8" y="-18.2" width="47.6" height="36.4" rx="6" fill="#ffffff" stroke="#1f2328" stroke-width="1.5"/><text font-size="14" fill="#1f2328" text-anchor="middle" dominant-baseline="central" font-family="system-ui, sans-serif"><tspan x="0" y="0">app</tspan></text></g>
<g id="domain" data-shape="rect" transform="translate(133 403)"><rect x="-36.4" y="-18.2" width="72.8" height="36.4" rx="6" fill="#ffffff" stroke="#1f2328" stroke-width="1.5"/><text font-size="14" fill="#1f2328" text-anchor="middle" dominant-baseline="central" font-family="system-ui, sans-serif"><tspan x="0" y="0">domain</tspan></text></g>
<g id="port" data-shape="rect" transform="translate(133 304)"><rect x="-28" y="-18.2" width="56" height="36.4" rx="6" fill="#ffffff" stroke="#1f2328" stroke-width="1.5"/><text font-size="14" fill="#1f2328" text-anchor="middle" dominant-baseline="central" font-family="system-ui, sans-serif"><tspan x="0" y="0">port</tspan></text></g>
<g id="postgres" data-shape="rect" transform="translate(324 206)"><rect x="-44.8" y="-18.2" width="89.6" height="36.4" rx="6" fill="#ffffff" stroke="#1f2328" stroke-width="1.5"/><text font-size="14" fill="#1f2328" text-anchor="middle" dominant-baseline="central" font-family="system-ui, sans-serif"><tspan x="0" y="0">postgres</tspan></text></g>
<g id="memory" data-shape="rect" transform="translate(515 206)"><rect x="-36.4" y="-18.2" width="72.8" height="36.4" rx="6" fill="#ffffff" stroke="#9ca3af" stroke-width="1.5"/><text font-size="14" fill="#9ca3af" text-anchor="middle" dominant-baseline="central" font-family="system-ui, sans-serif"><tspan x="0" y="0">memory</tspan></text></g>
<g id="token" data-shape="circle" transform="translate(0 0)" opacity="0"><circle r="6" fill="#f59e0b" stroke="#1f2328" stroke-width="1.5"/></g>
<g id="relate-main-0" data-shape="line" transform="translate(421.7 206)"><line x1="-47.9" y1="0" x2="47.9" y2="0" stroke="#f59e0b" stroke-width="2" fill="none"/></g>
<g id="relate-main-0-2" data-shape="line" transform="translate(421.7 210)"><line x1="-47.9" y1="0" x2="47.9" y2="0" stroke="#f59e0b" stroke-width="2" fill="none"/></g>
<g id="relate-main-0-label" data-shape="text" transform="translate(421.7 254)"><text font-size="12" fill="#f59e0b" stroke="#ffffff" stroke-width="3" stroke-linejoin="round" paint-order="stroke" text-anchor="middle" dominant-baseline="central" font-family="system-ui, sans-serif"><tspan x="0" y="0">substitutable</tspan></text></g>
</svg>